<?xml version="1.0" encoding="UTF-8" standalone="no"?>
<!DOCTYPE svg PUBLIC "-//W3C//DTD SVG 1.1//EN" "http://www.w3.org/Graphics/SVG/1.1/DTD/svg11.dtd">
<svg width="100%" height="100%" viewBox="0 0 300 500" version="1.1" xmlns="http://www.w3.org/2000/svg" xmlns:xlink="http://www.w3.org/1999/xlink" xml:space="preserve" xmlns:serif="http://www.serif.com/" style="fill-rule:evenodd;clip-rule:evenodd;stroke-linecap:round;stroke-miterlimit:1.5;">
    <g transform="matrix(1.327,0.0969497,-0.0969497,1.327,149.558,252.536)">
        <g id="Keep-Out" serif:id="Keep Out" transform="matrix(1,0,0,1,-100,-183)">
            <clipPath id="_clip1">
                <rect x="0" y="0" width="200" height="366"/>
            </clipPath>
            <g clip-path="url(#_clip1)">
                <g id="Buoy" transform="matrix(0.930366,0,0,0.930366,-39.4922,-59.2318)">
                    <path d="M257.187,444.978C257.187,451.29 209.077,456.414 149.818,456.414C90.559,456.414 42.448,451.29 42.448,444.978L42.448,75.119L42.449,75.156C42.64,81.451 90.677,86.555 149.818,86.555C209.077,86.555 257.187,81.431 257.187,75.119L257.187,444.978Z" style="fill:rgb(235,235,235);"/>
                    <g transform="matrix(1,0,0,1,-20.9657,-50.8259)">
                        <ellipse cx="170.783" cy="125.945" rx="107.37" ry="11.436" style="fill:rgb(223,223,223);"/>
                    </g>
                    <g transform="matrix(1,0,0,1.45341,0,-59.408)">
                        <path d="M42.448,113.119L42.449,113.156C42.64,119.451 90.677,124.555 149.818,124.555C209.077,124.555 257.187,119.431 257.187,113.119L257.187,136.119C257.187,142.431 209.077,147.555 149.818,147.555C90.559,147.555 42.448,142.431 42.448,136.119L42.448,113.119Z" style="fill:rgb(255,66,84);"/>
                    </g>
                    <g transform="matrix(1,0,0,1.45341,0.182295,203.458)">
                        <path d="M42.448,113.119L42.449,113.156C42.64,119.451 90.677,124.555 149.818,124.555C209.077,124.555 257.187,119.431 257.187,113.119L257.187,136.119C257.187,142.431 209.077,147.555 149.818,147.555C90.559,147.555 42.448,142.431 42.448,136.119L42.448,113.119Z" style="fill:rgb(255,66,84);"/>
                    </g>
                </g>
                <path d="M100.063,100.562L99.893,275.494" style="fill:none;stroke:rgb(255,66,84);stroke-width:10.42px;"/>
                <path d="M187.359,188.028L12.427,188.028" style="fill:none;stroke:rgb(255,66,84);stroke-width:10.42px;"/>
                <g transform="matrix(0.721254,0.721845,-0.721845,0.721254,163.753,-107.62)">
                    <rect x="100.11" y="188.447" width="121.22" height="121.22" style="fill:none;stroke:rgb(255,66,84);stroke-width:10.21px;"/>
                </g>
            </g>
        </g>
        <g id="Keep-Out1" serif:id="Keep Out">
        </g>
    </g>
</svg>
