<svg xmlns="http://www.w3.org/2000/svg" xmlns:svg="http://www.w3.org/2000/svg" id="svg8" width="537.908" height="240.494" version="1.1" viewBox="0 0 142.322 63.631"><metadata id="metadata5"/><g id="layer1" transform="translate(-64.211347,-184.67498)"><path id="path983" d="m 64.211347,240.64662 0.06842,0.66122 0.07199,0.22415 0.123052,0.38243 0.06331,0.19607 0.0531,0.16492 0.05974,0.18586 0.142455,0.44166 0.202705,0.63058 0.05361,0.15828 0.255806,0.76027 0.04953,0.14757 v 0.0158 l 0.002,0.27215 0.471276,1.08602 0.340565,0.66275 0.186876,0.32678 0.01072,0.0179 0.04034,0.0807 v 0.0807 l -0.09701,0.0888 -0.185345,0.0945 -0.04595,0.0888 -0.08272,0.0842 -0.01889,0.0858 0.04697,0.0817 0.05106,-0.0276 0.04034,0.0117 0.07608,-0.0654 0.09344,-0.10262 0.175133,-0.12612 0.08067,-0.009 0.02911,0.0102 0.06229,0.0224 0.18126,0.16901 0.0337,0.0312 0.109777,0.18126 0.111309,0.13939 0.326779,0.22466 0.356903,0.15215 0.420217,0.0281 0.78529,-0.11948 0.228235,0.0286 0.286442,-0.097 0.380901,-0.0184 0.485062,-0.023 0.540207,0.007 0.474339,0.0745 0.403367,-0.169 1.12943,-0.8869 0.286442,-0.16747 0.498848,-0.0832 0.636707,-0.0347 0.598414,-0.0419 0.576968,-0.14808 0.346693,0.0291 0.478424,0.1736 0.840944,0.0429 0.625986,0.023 0.374263,-0.0628 0.519273,-0.18688 0.45749,-0.33035 0.289506,-0.44728 0.183812,-0.43502 0.07251,-0.51876 0.177683,-0.0812 0.189429,0.0388 0.209855,0.11029 0.305843,0.0842 0.479447,0.0107 0.31861,0.003 0.397239,0.10825 0.532546,0.0403 0.640282,0.0955 0.39622,-0.0991 0.415113,-0.12561 0.03829,-0.0189 0.470766,-0.2313 0.263466,-0.0791 0.235892,-0.071 0.307376,0.004 0.273678,0.0924 0.370688,0.13888 0.570335,0.18841 0.271632,0.13684 1.177422,0.21905 0.58463,-0.047 0.601478,-0.21955 0.226703,-0.0424 0.682658,0.10672 0.55706,0.025 0.607091,-0.007 0.959404,-0.0945 0.982376,-0.14042 0.321164,-0.16083 0.300737,-0.14195 0.702574,-0.11182 0.717891,-0.0991 0.708191,-0.15777 0.942553,-0.30483 0.514168,-0.19147 0.338523,-0.10876 0.327288,-0.15317 0.495786,-0.29512 0.213424,-0.0388 0.38499,0.0419 0.930811,0.0107 1.18457,-0.0128 1.11564,-0.13225 0.16901,-0.0388 0.25785,-0.0597 0.16798,-0.024 0.32576,-0.0465 0.0776,-0.0878 0.13684,-0.10416 0.14756,-0.10927 1.02731,-0.0985 2.95786,-0.34414 0.34465,-0.1588 2.02807,-0.0929 0.36099,-0.0654 0.27316,-0.0822 0.21292,-0.0873 3.19834,-1.08245 0.37733,0.0327 0.22977,0.071 0.3278,0.16952 0.59024,0.22415 0.5688,0.0985 0.68317,-0.0219 0.35538,-0.0163 0.29512,-0.0929 0.29563,-0.0929 0.24611,-0.2461 0.49169,-0.3278 0.47026,-0.48098 0.24049,-0.48149 0.11488,-0.27317 0.11999,-0.18585 1.61296,-0.90579 2.01224,-1.8366 1.39903,-2.18686 1.31732,-2.51569 0.14399,-0.94868 0.64181,-1.46795 0.52132,-0.49068 3.23613,-1.48735 1.31222,0.70002 1.13709,0.43707 2.01173,0.43757 3.49908,0.43758 2.79907,-1.22491 h 2.01173 l 1.39953,-0.26244 2.01173,-0.34976 1.83711,0.0873 2.27418,-1.57415 2.88637,-2.01225 2.18687,-1.22439 2.01173,-1.04978 1.31222,-0.87465 1.04978,-0.61219 1.48684,-0.34976 0.87464,0.43707 1.95455,2.81949 1.3357,1.44088 0.8915,-0.24252 1.59151,0.006 1.02833,0.87464 2.18227,1.06357 0.77916,1.57823 -0.23537,1.11207 1.95607,1.56395 0.92621,-0.67603 1.48941,0.74955 2.0204,0.55655 2.62445,0.26244 2.44879,-0.43707 2.09956,-1.8371 2.62392,-1.66198 2.36201,-1.48684 2.85879,-1.57416 1.99489,-1.04926 0.27981,0.10467 0.26244,-0.0873 0.48099,-0.13122 0.39366,-0.26245 0.4197,-0.28848 0.38498,-0.32372 0.13277,-0.0127 0.35893,-0.21854 0.14654,-0.145 0.76589,-0.22722 0.34516,-0.0526 0.3324,-0.0439 0.31402,0.024 0.0817,0.006 0.0475,0.004 0.42687,-0.0878 0.24967,-0.0945 0.52489,-0.0526 0.385,-0.0873 0.2272,-0.0873 0.23589,-0.10519 0.20118,-0.50753 0.14603,-0.67295 0.14041,-0.73526 0.05,-0.78937 0.0582,-1.24942 -0.01,-0.73372 -0.0266,-0.99872 -0.008,-0.3135 -0.1399,-1.39953 -0.29768,-1.74929 -0.19964,-0.85984 -0.0276,-0.11999 -0.17512,-0.31503 -0.26245,-0.14858 -0.2359,-0.14859 -0.26243,-0.1399 -0.3661,-0.15828 -1.31223,-0.87464 -0.70001,-1.31223 1.04977,-3.23613 0.87464,-2.362 1.48736,-2.71174 0.79805,-0.74343 1.3878,-0.99718 1.22542,-2.89506 0.62444,-2.14704 0.59281,-1.81413 -0.05,-0.47996 -0.10774,-1.03292 -2.00408,-2.83277 0.0332,-0.10467 0.15727,-0.11897 0.22567,0.007 0.38601,-0.10263 0.36354,-0.43553 -0.0117,-0.05 -0.009,-0.0378 -0.32166,0.0761 -0.30432,0.14042 -0.39469,0.2604 -0.48096,0.1011 -0.11694,0.10722 -0.0618,0.0929 -0.11487,0.0291 -0.17003,0.0434 -0.35589,-0.20985 -0.10518,-0.0623 -0.26909,-0.24917 -0.32167,-0.2553 -0.70717,-0.40796 -0.46821,-0.25223 -0.50753,-0.2359 -0.21905,-0.0832 -0.0465,0.0133 -0.1394,0.0102 -0.48454,-0.1159 -0.57442,-0.0965 -0.90269,-0.0633 -0.41152,0.004 -0.41001,0.0996 -0.89916,0.34516 -0.60761,0.57289 -1.8948,1.16721 -0.93642,2.32523 -0.6311,1.20858 -0.97574,0.95889 -0.91294,0.78376 -1.44497,1.33519 -0.55195,0.5642 0.11539,0.88997 -0.35333,1.02833 -0.009,0.23998 -0.0511,1.38932 -1.25554,1.29435 -2.11029,1.34898 -2.97368,1.66147 -2.09956,1.57466 -2.62392,1.66198 -2.71176,0.78733 -1.57415,0.87465 -0.87515,1.48684 -1.39954,0.43757 -1.74928,0.6122 -1.31222,0.96247 -2.09905,0.17462 -2.36148,0.17514 -1.66198,0.52488 -1.22491,0.26245 -2.27418,0.34975 -0.96195,-0.0878 -2.01225,1.31222 -1.57415,-0.34975 -2.44931,-0.43707 -2.27417,-1.1376 -1.83711,-0.78682 -2.09905,-1.1376 -2.01224,-0.43707 -3.14882,-0.43757 -2.18686,0.0878 -2.88638,-0.87465 -2.71175,-0.17513 -2.09904,-0.87464 -1.66198,-0.35027 -1.31222,1.04978 -1.66197,1.31222 -1.92443,0.96195 -1.13708,1.48736 -1.8366,0.43707 -2.01173,1.04977 -2.6244,2.18687 -2.71175,2.01173 -0.87464,1.31222 -0.6122,0.69951 -1.39953,0.17513 -1.39953,-0.26244 -0.40899,-2.1792 -0.0153,-0.25939 -0.0158,-0.29461 -0.0204,-0.37018 0.0286,-0.24814 0.0153,-0.24305 0.026,-0.0567 0.0414,-0.0388 0.0332,-0.0567 0.0158,-0.12459 0.001,-0.16339 -0.0174,-0.16236 -0.0934,-0.30636 -0.0128,-0.1108 0.008,-0.16186 v -0.098 l -0.0255,-0.0934 -0.0424,-0.1108 0.004,-0.047 0.0557,-0.0725 0.0551,-0.0383 0.20424,-0.17871 0.0899,-0.0812 0.0725,-0.14909 0.0296,-0.13582 v -0.12407 l -0.0429,-0.23385 -0.0296,-0.13633 -0.11948,-0.30687 -0.0296,-0.13173 -0.004,-0.0725 0.0163,-0.12203 0.0153,-0.0776 0.0444,-0.13735 0.0618,-0.22466 0.0153,-0.0878 0.003,-0.0725 -0.0413,-0.18126 -0.0153,-0.0669 -0.005,-0.0751 0.0102,-0.0802 0.0158,-0.0751 0.0414,-0.14756 0.0102,-0.10824 v -0.0495 l -0.0102,-0.0929 -0.008,-0.16033 -0.0112,-0.0842 -0.0429,-0.31402 -0.0153,-0.20679 -0.0546,-0.0362 -0.0306,-0.13429 -0.0184,-0.1011 -0.0123,-0.19913 -0.003,-0.0516 -0.003,-0.3569 0.0204,-0.22977 0.005,-0.10109 0.003,-0.098 -0.008,-0.12662 -0.0179,-0.17105 -0.0388,-0.19096 -0.0388,-0.0985 -0.07,-0.14245 -0.10313,-0.21445 -0.0388,-0.0929 -0.0235,-0.0699 -0.0388,-0.049 -0.0235,-0.0776 -0.003,-0.0648 0.0439,-0.16799 0.0556,-0.18075 0.009,-0.0572 0.0102,-0.15777 0.005,-0.22467 -0.0204,-0.25886 -0.0179,-0.0694 -0.0572,-0.10365 -0.0929,-0.11896 -0.0546,-0.0878 -0.072,-0.14501 -0.0286,-0.0669 -0.0153,-0.1011 -0.0209,-0.12407 -0.049,-0.19403 -0.0158,-0.10058 -0.0153,-0.18382 -0.0286,-0.13939 -0.0281,-0.0597 -0.0802,-0.0751 -0.096,-0.0853 -0.10059,-0.0802 -0.19913,-0.0955 -0.1399,-0.0725 -0.0664,-0.0332 -0.23079,-0.11386 -0.42685,-0.17616 -0.23538,-0.10467 -0.0449,-0.0199 -0.0919,-0.0408 -0.25836,-0.0725 -0.32065,-0.0827 -0.0582,-0.0184 -0.20577,-0.0643 -0.217,-0.0802 -0.14756,-0.0618 -0.15114,-0.0398 -0.5065,-0.0643 -0.67756,-0.11692 -1.23563,-0.10927 -0.40031,0.0107 -0.11692,-0.0128 -0.12408,0.006 -0.1159,-0.002 -0.0939,0.0179 -0.12662,0.0138 -0.0531,0.006 -0.05,0.003 -0.17513,0.0102 -0.24559,0.022 -0.14654,0.0148 -0.0393,0.005 -0.0567,0.004 -0.0684,0.005 -0.14859,0.026 -0.2849,0.07 -0.231811,0.0613 -0.03932,0.0133 -0.07148,0.0245 -0.06433,0.0215 -0.196068,0.073 -0.06893,0.0255 -0.161859,0.0766 -0.186368,0.11387 -0.0914,0.0465 -0.218533,0.10518 -0.203724,0.13531 -0.233854,0.21036 -0.186876,0.25836 -0.06229,0.10263 -0.02809,0.0475 -0.0082,0.0128 -0.07965,0.15266 -0.04187,0.12408 -0.01786,0.0985 0.0019,0.12459 3.71e-4,0.0358 v 0.12918 l -0.0056,0.0562 -0.0026,0.023 -0.0072,0.071 0.0019,0.0362 0.003,0.0465 0.02297,0.0904 0.0342,0.0577 0.05055,0.0858 0.02197,0.0378 0.02297,0.0383 0.100589,0.15267 0.0725,0.1011 0.04136,0.11079 0.0286,0.0858 0.02042,0.0643 0.01275,0.0929 0.01378,0.15981 -0.120497,1.19019 -0.01378,0.13786 -0.0051,0.0505 -0.0037,0.0352 -0.0674,0.25427 3.7e-4,0.0255 0.0022,0.0659 0.0061,0.23844 -0.06995,0.37478 -0.0087,0.0449 -0.01175,0.0577 -0.01278,0.10313 -0.0087,0.20271 0.0011,0.0138 0.0072,0.12408 0.02961,0.14092 -0.003,0.1445 -0.003,0.14144 0.0072,0.21189 3.71e-4,0.0214 0.003,0.16033 -0.0015,0.0674 -0.003,0.0888 -0.0037,0.0577 0.04851,0.0245 -0.0051,0.10365 -0.0041,0.0909 -0.0051,0.10466 -0.0051,0.0965 -0.0342,0.10671 -0.02553,0.0796 -0.02093,0.1011 -0.03576,0.17462 -0.0015,0.0204 -0.0046,0.0449 -0.04646,0.19862 -0.0868,0.3666 -0.144499,0.41818 -0.07506,0.217 -0.36201,1.36379 -0.754655,1.36992 -0.455447,0.81388 -0.0725,0.23947 -0.101097,0.33291 -0.149093,0.70921 0.06076,0.5642 0.0082,0.5642 -0.08476,0.98749 -0.14909,1.0074 -0.222108,1.46846 -0.06433,0.13122 -0.116417,0.0766 -0.193512,0.008 -0.548378,-0.22976 -0.592285,-0.3227 -0.55195,-0.36252 -0.487613,-0.45545 -0.149094,-0.26602 -0.370691,-0.39877 -0.363032,-0.47536 -0.652536,-0.47995 -0.1736,-0.095 -0.745461,-0.40847 -0.290018,-0.0766 -0.323717,-0.0475 -0.917531,-0.13378 -0.572373,-0.0485 -0.484553,0.0842 -1.163638,0.20169 -1.180491,0.27827 -0.898638,0.19352 -0.643858,0.0827 -0.267038,0.0342 -1.178956,0.27674 -0.323206,0.18534 -0.537143,0.30738 -1.075815,0.54021 -0.463621,0.27776 -0.612197,0.33444 -0.120501,0.10467 -0.09089,0.0791 -0.170536,0.14807 -0.28287,0.14807 -0.270102,0.0883 -0.403368,0.14909 -0.7858,0.46362 -0.285932,0.28593 -0.249679,0.35894 -0.257849,0.21343 -0.112841,-0.0163 -0.225681,0.0929 -0.576458,0.48353 -0.391114,0.26602 -0.382433,0.45544 -0.629049,0.5397 -0.104671,0.11335 -0.132755,0.17718 -0.189428,0.2701 -0.330353,0.26959 -0.637219,0.29462 -0.716871,0.4871 -0.439619,0.53203 -0.124585,0.25837 -0.0725,0.23742 -0.03625,0.52387 0.05004,0.83941 -0.02655,0.20322 -1.321922,1.06407 -2.095468,0.96297 -0.869028,2.22925 -0.961954,2.47075 -1.283117,2.6224 z m 0,0" style="fill:#1c5d99;fill-opacity:1;fill-rule:evenodd;stroke:none;stroke-width:.1307115"/></g></svg>