<svg xmlns="http://www.w3.org/2000/svg" xmlns:svg="http://www.w3.org/2000/svg" xmlns:xlink="http://www.w3.org/1999/xlink" id="svg8" width="537.908" height="240.494" version="1.1" viewBox="0 0 142.322 63.631"><defs id="defs2"><clipPath id="clipPath875" clipPathUnits="userSpaceOnUse"><path id="path877" d="m 11.170902,3029.8876 3.556929,34.3747 3.742523,11.6528 6.397067,19.8813 3.291278,10.193 2.760494,8.5737 3.105684,9.6622 7.405765,22.9605 10.537965,32.7817 2.787006,8.2286 13.298509,39.5239 2.574901,7.6716 v 0.8211 l 0.103986,14.1482 24.500083,56.4586 17.704848,34.4542 9.71507,16.9883 0.5573,0.9298 2.09714,4.1953 v 4.1953 l -5.04322,4.6165 -9.63548,4.9127 -2.38879,4.6163 -4.30034,4.3774 -0.98202,4.4604 2.44181,4.2473 2.65444,-1.4347 2.09715,0.6079 3.95514,-3.3999 4.85764,-5.3349 9.10459,-6.5565 4.19376,-0.4677 1.51334,0.5296 3.23825,1.165 9.42311,8.7863 1.75195,1.622 5.70695,9.4231 5.78659,7.2465 16.98815,11.6793 18.55422,7.9097 21.84569,1.4609 40.82462,-6.2114 11.86518,1.4868 14.8912,-5.0427 19.80177,-0.9559 25.21678,-1.1953 28.08358,0.3645 24.65931,3.8731 20.96972,-8.7858 58.71533,-46.107 14.89117,-8.7062 25.93346,-4.3253 33.10029,-1.804 31.10956,-2.1782 29.99467,-7.6982 18.02343,1.5128 24.87168,9.0249 43.7179,2.2302 32.54295,1.1953 19.4567,-3.2648 26.99528,-9.7152 23.78339,-17.1738 15.05046,-23.2527 9.55579,-22.6152 3.76955,-26.9687 9.23715,-4.2212 9.84779,2.017 10.90967,5.7337 15.89977,4.3772 24.92486,0.5557 16.56349,0.1554 20.65114,5.6277 27.6853,2.095 33.28616,4.9648 20.59812,-5.152 21.5804,-6.53 1.9906,-0.9821 24.4735,-12.0244 13.6968,-4.1122 12.2632,-3.6911 15.9795,0.2077 14.2276,4.8036 19.2709,7.2199 29.6498,9.7948 14.1212,7.1139 61.2103,11.3877 30.393,-2.4434 31.2688,-11.4137 11.7856,-2.2042 35.4891,5.548 28.9597,1.2998 31.5606,-0.3645 49.8763,-4.9127 51.0706,-7.2999 16.6961,-8.361 15.6344,-7.3796 36.5244,-5.8131 37.3208,-5.152 36.8166,-8.2019 49.0002,-15.847 26.7299,-9.954 17.5987,-5.654 17.0146,-7.9628 25.7743,-15.3424 11.0952,-2.017 20.0144,2.1782 48.3897,0.5557 61.5819,-0.6657 57.9984,-6.8752 8.7863,-2.0172 13.4048,-3.1035 8.7327,-1.2475 16.9352,-2.4175 4.0342,-4.5644 7.1139,-5.4149 7.6711,-5.6806 53.4065,-5.1207 153.7693,-17.8907 17.9173,-8.2555 105.4326,-4.8295 18.7666,-3.4 14.2008,-4.2733 11.069,-4.5385 166.2711,-56.2729 19.6161,1.7 11.945,3.691 17.0412,8.8128 30.6847,11.6528 29.57,5.1207 35.5157,-1.1389 18.4751,-0.8473 15.3424,-4.8295 15.3688,-4.8296 12.7944,-12.7939 25.5613,-17.0412 24.4474,-25.0046 12.5021,-25.0311 5.9724,-14.2012 6.2378,-9.6617 83.8525,-47.0891 104.6096,-95.4787 72.7311,-113.6877 68.483,-130.7824 7.4856,-49.3187 33.3656,-76.3139 27.1017,-25.5089 168.2357,-77.3224 68.2179,36.3918 59.1137,22.7219 104.5832,22.7477 181.9055,22.7484 145.5145,-63.679 h 104.5832 l 72.7569,-13.6434 104.5833,-18.1829 95.5051,4.5384 118.2272,-81.8349 150.0528,-104.6101 113.6882,-63.6521 104.5832,-54.5746 68.218,-45.4701 54.5745,-31.8257 77.296,-18.1829 45.4696,22.7218 101.6107,146.576 69.4385,74.9065 46.3462,-12.6078 82.7374,0.3123 53.4595,45.4695 113.449,55.2916 40.5058,82.0469 -12.236,57.8129 101.6896,81.3046 48.1506,-35.1445 77.4295,38.9665 105.034,28.9333 136.4365,13.6434 127.3045,-22.7219 109.1491,-95.5047 136.409,-86.4009 122.793,-77.2959 148.6192,-81.8353 103.7077,-54.5476 14.5464,5.4414 13.6434,-4.5384 25.005,-6.8217 20.4651,-13.644 21.8188,-14.997 20.0138,-16.8292 6.9023,-0.6602 18.6596,-11.3612 7.6182,-7.538 39.8161,-11.8125 17.9437,-2.7345 17.2804,-2.2822 16.3248,1.2476 4.2473,0.3122 2.4694,0.2077 22.1915,-4.5644 12.9796,-4.9128 27.2873,-2.7345 20.0148,-4.5384 11.8114,-4.5384 12.2631,-5.4685 10.4587,-26.3849 7.5916,-34.9844 7.2995,-38.2236 2.5993,-41.0368 3.0256,-64.9533 -0.5199,-38.1436 -1.3829,-51.9202 -0.4154,-16.2978 -7.273,-72.757 -15.4754,-90.9398 -10.3786,-44.7001 -1.4349,-6.238 -9.1039,-16.3774 -13.6439,-7.7242 -12.2637,-7.7247 -13.6428,-7.2729 -19.0323,-8.2284 -68.2185,-45.4697 -36.3912,-68.2185 54.574,-168.2357 45.4697,-122.7926 77.3229,-140.9744 41.488,-38.64847 72.1472,-51.84009 63.7055,-150.50461 32.4625,-111.61752 30.8183,-94.31063 -2.5994,-24.95153 -5.601,-53.69809 -104.1855,-147.26637 1.726,-5.44144 8.1758,-6.18486 11.7319,0.36391 20.0675,-5.3354 18.8992,-22.64176 -0.6079,-2.59934 -0.4677,-1.96509 -16.722,3.95618 -15.8206,7.29998 -20.5187,13.53733 -25.0035,5.25586 -6.0793,5.57401 -3.2129,4.82956 -5.9716,1.51282 -8.8393,2.25622 -18.5016,-10.90941 -5.4679,-3.23877 -13.9891,-12.95352 -16.7225,-13.27221 -36.7635,-21.20849 -24.3406,-13.11261 -26.3849,-12.26366 -11.3876,-4.32529 -2.4175,0.69142 -7.247,0.53026 -25.1896,-6.02525 -29.8622,-5.01672 -46.9287,-3.28897 -21.3935,0.20794 -21.315,5.17788 -46.7444,17.94373 -31.5877,29.78266 -98.5044,60.67939 -48.6814,120.88103 -32.8088,62.83009 -50.7254,49.84952 -47.4608,40.74509 -75.1193,69.41213 -28.694,29.33089 5.9987,46.2666 -18.3684,53.45948 -0.4677,12.47577 -2.6566,72.22616 -65.2714,67.28897 -109.7069,70.12902 -154.5918,86.3743 -109.1492,81.8614 -136.4089,86.4009 -140.9755,40.9307 -81.8349,45.4701 -45.4961,77.2959 -72.7575,22.7478 -90.9393,31.8263 -68.2179,50.0356 -109.1227,9.0779 -122.7656,9.105 -86.4009,27.2867 -63.679,13.644 -118.2271,18.1823 -50.0086,-4.5644 -104.6103,68.218 -81.8348,-18.1824 -127.3315,-22.7218 -118.2266,-59.1401 -95.5053,-40.9041 -109.1227,-59.1401 -104.6096,-22.7218 -163.6969,-22.7478 -113.6875,4.5644 -150.0535,-45.4702 -140.9749,-9.1044 -109.1221,-45.4697 -86.4009,-18.2093 -68.218,54.5746 -86.4003,68.2179 -100.0448,50.0086 -59.1129,77.323 -95.4788,22.7218 -104.5832,54.5741 -136.4339,113.6881 -140.975,104.5832 -45.4696,68.218 -31.8263,36.3652 -72.7569,9.1045 -72.7569,-13.6434 -21.262,-113.2895 -0.7951,-13.4848 -0.8211,-15.3157 -1.0605,-19.2445 1.4869,-12.9 0.795,-12.6354 1.3521,-2.9475 2.1522,-2.0172 1.726,-2.9476 0.8211,-6.477 0.055,-8.4942 -0.905,-8.4405 -4.8556,-15.9267 -0.6658,-5.7601 0.4154,-8.4145 v -5.0948 l -1.3259,-4.8556 -2.2042,-5.7601 0.2077,-2.4434 2.8956,-3.7689 2.8646,-1.9912 10.6178,-9.2905 4.6736,-4.2212 3.7689,-7.7507 1.5389,-7.0609 v -6.4499 l -2.2303,-12.1572 -1.5388,-7.0873 -6.2114,-15.9532 -1.5387,-6.8482 -0.2077,-3.7691 0.8473,-6.3438 0.795,-4.0342 2.3082,-7.1404 3.2128,-11.6793 0.7951,-4.5645 0.1554,-3.769 -2.147,-9.4231 -0.795,-3.478 -0.26,-3.9041 0.5296,-4.1694 0.8211,-3.9042 2.1524,-7.6711 0.5296,-5.6271 v -2.5733 l -0.5296,-4.8296 -0.4154,-8.335 -0.5818,-4.3773 -2.2302,-16.3249 -0.7951,-10.7503 -2.8384,-1.8819 -1.5909,-6.9813 -0.9559,-5.2558 -0.6396,-10.3522 -0.1555,-2.6825 -0.1554,-18.554 1.0605,-11.945 0.26,-5.2553 0.1554,-5.0947 -0.4154,-6.5826 -0.9298,-8.8923 -2.0172,-9.9274 -2.0171,-5.1207 -3.639,-7.4055 -5.3615,-11.1485 -2.017,-4.8296 -1.2214,-3.6339 -2.0172,-2.5473 -1.2214,-4.0342 -0.1554,-3.3687 2.2822,-8.7333 2.8904,-9.3966 0.4677,-2.9736 0.5309,-8.202 0.26,-11.6798 -1.0605,-13.4573 -0.9312,-3.6079 -2.9737,-5.3884 -4.8296,-6.1843 -2.8384,-4.5644 -3.7431,-7.5386 -1.4868,-3.478 -0.795,-5.2558 -1.0866,-6.45 -2.5474,-10.087 -0.8212,-5.2288 -0.795,-9.5562 -1.4869,-7.2464 -1.4607,-3.1036 -4.1694,-3.9042 -4.9907,-4.4345 -5.2294,-4.1693 -10.352,-4.9648 -7.273,-3.769 -3.4519,-1.7259 -11.9981,-5.9193 -22.1905,-9.1579 -12.2365,-5.4415 -2.3342,-1.0345 -4.7776,-2.121 -13.4313,-3.7691 -16.6696,-4.2993 -3.0255,-0.9565 -10.6974,-3.3427 -11.2812,-4.1693 -7.671,-3.2128 -7.8573,-2.0691 -26.3313,-3.3427 -35.2241,-6.0783 -64.2364,-5.6806 -20.8108,0.5562 -6.0782,-0.6654 -6.4505,0.3119 -6.0253,-0.1045 -4.8815,0.9305 -6.5825,0.7175 -2.7606,0.3119 -2.5993,0.156 -9.1044,0.5303 -12.7674,1.1437 -7.6182,0.7694 -2.043,0.26 -2.9477,0.208 -3.5559,0.2599 -7.7247,1.3517 -14.811,3.6391 -12.051,3.1868 -2.0443,0.6914 -3.716,1.2737 -3.3442,1.1177 -10.193,3.7951 -3.5834,1.3257 -8.4145,3.9821 -9.6886,5.9198 -4.7516,2.4173 -11.3608,5.468 -10.5909,7.0343 -12.1574,10.9359 -9.7151,13.4313 -3.2382,5.3354 -1.4603,2.4694 -0.4264,0.6655 -4.1408,7.9362 -2.1767,6.4505 -0.9284,5.1207 0.096,6.4771 0.014,1.8611 v 6.7156 l -0.2916,2.9217 -0.1376,1.1957 -0.3741,3.691 0.096,1.882 0.1554,2.4173 1.1939,4.6996 1.778,2.9997 2.628,4.4604 1.1416,1.9651 1.194,1.9911 5.2293,7.9368 3.7689,5.2559 2.1503,5.7596 1.4868,4.4604 1.0618,3.3428 0.663,4.8295 0.7166,8.308 -6.2642,61.8741 -0.7166,7.1669 -0.2655,2.6253 -0.1925,1.8299 -3.5039,13.2187 0.014,1.3257 0.1101,3.4259 0.3163,12.3957 -3.6363,19.4836 -0.4526,2.3342 -0.6107,2.9996 -0.6643,5.3614 -0.4526,10.5382 0.055,0.7175 0.3742,6.4505 1.5393,7.326 -0.1555,7.512 -0.1554,7.353 0.3741,11.0155 0.014,1.1125 0.1554,8.335 -0.082,3.5039 -0.1554,4.6164 -0.1926,2.9997 2.5218,1.2737 -0.2655,5.3884 -0.2132,4.7256 -0.2654,5.4409 -0.2655,5.0167 -1.7779,5.5475 -1.3274,4.1382 -1.088,5.2558 -1.8589,9.0779 -0.083,1.0605 -0.2393,2.3342 -2.4154,10.3257 -4.5124,19.0582 -7.512,21.7398 -3.9021,11.2811 -18.8198,70.899 -39.232,71.2176 -23.6771,42.3109 -3.7691,12.4493 -5.2556,17.3069 -7.751,36.8695 3.1588,29.3309 0.4264,29.3309 -4.4063,51.3363 -7.7507,52.3714 -11.5466,76.3403 -3.3444,6.8217 -6.0521,3.9823 -10.0601,0.4154 -28.5084,-11.9444 -30.7908,-16.7762 -28.6941,-18.8461 -25.3494,-23.6774 -7.751,-13.8295 -19.2709,-20.7308 -18.8729,-24.7123 -33.9232,-24.9511 -9.0249,-4.9386 -38.754,-21.2351 -15.0771,-3.9822 -16.829,-2.4694 -47.6994,-6.9547 -29.7558,-2.5214 -25.1903,4.3774 -60.4937,10.4851 -61.3698,14.4664 -46.7172,10.0604 -33.4721,4.2993 -13.8824,1.778 -61.29003,14.3868 -16.80241,9.6351 -27.9243,15.9798 -55.92806,28.0836 -24.10214,14.44 -31.82609,17.3863 -6.26445,5.4414 -4.72507,4.1122 -8.86561,7.6977 -14.70548,7.6976 -14.04171,4.5906 -20.96976,7.7507 -40.85116,24.102 -14.86466,14.8645 -12.97998,18.6601 -13.40472,11.0956 -5.86622,-0.8473 -11.73242,4.8296 -29.96815,25.1372 -20.33272,13.8295 -19.88143,23.6767 -32.70218,28.0572 -5.4415,5.8927 -6.90149,9.211 -9.84774,14.0416 -17.17397,14.0151 -33.1269,15.3164 -37.26776,25.3227 -22.85434,27.6585 -6.47676,13.4317 -3.76903,12.3427 -1.88452,27.2343 2.6014,43.6381 -1.38024,10.5648 -68.72236,55.3175 -108.93645,50.0616 -45.17791,115.8913 -50.00881,128.4462 -66.705011,136.33 z m 0,0" style="fill:#1c5d99;fill-opacity:1;fill-rule:evenodd;stroke:none;stroke-width:6.795259"/></clipPath></defs><metadata id="metadata5"/><g id="layer1" transform="translate(-64.211347,-184.67498)"><g id="g873" clip-path="url(#clipPath875)" transform="matrix(0.01923569,0,0,0.01923569,63.996467,182.36464)"><rect id="rect816" width="7410" height="3900" x="0" y="0" style="fill:#b22234"/><path id="path818" d="m 0,450 h 7410 m 0,600 H 0 m 0,600 h 7410 m 0,600 H 0 m 0,600 h 7410 m 0,600 H 0" style="stroke:#fff;stroke-width:300"/><rect id="rect820" width="2964" height="2100" x="0" y="0" style="fill:#3c3b6e"/><g id="g845" style="fill:#fff"><g id="s18"><g id="s9"><g id="s5"><g id="s4"><path id="s" d="M 247,90 317.53423,307.08204 132.87322,172.91796 H 361.12678 L 176.46577,307.08204 Z"/><use id="use823" width="100%" height="100%" x="0" y="420" xlink:href="#s"/><use id="use825" width="100%" height="100%" x="0" y="840" xlink:href="#s"/><use id="use827" width="100%" height="100%" x="0" y="1260" xlink:href="#s"/></g><use id="use830" width="100%" height="100%" x="0" y="1680" xlink:href="#s"/></g><use id="use833" width="100%" height="100%" x="247" y="210" xlink:href="#s4"/></g><use id="use836" width="100%" height="100%" x="494" y="0" xlink:href="#s9"/></g><use id="use839" width="100%" height="100%" x="988" y="0" xlink:href="#s18"/><use id="use841" width="100%" height="100%" x="1976" y="0" xlink:href="#s9"/><use id="use843" width="100%" height="100%" x="2470" y="0" xlink:href="#s5"/></g></g></g></svg>