<?xml version="1.0" encoding="UTF-8" standalone="no"?>
<!-- Created with Inkscape (http://www.inkscape.org/) -->

<svg
   xmlns:dc="http://purl.org/dc/elements/1.1/"
   xmlns:cc="http://creativecommons.org/ns#"
   xmlns:rdf="http://www.w3.org/1999/02/22-rdf-syntax-ns#"
   xmlns:svg="http://www.w3.org/2000/svg"
   xmlns="http://www.w3.org/2000/svg"
   xmlns:sodipodi="http://sodipodi.sourceforge.net/DTD/sodipodi-0.dtd"
   xmlns:inkscape="http://www.inkscape.org/namespaces/inkscape"
   width="383.94901mm"
   height="171.65553mm"
   viewBox="0 0 383.94901 171.65553"
   version="1.1"
   id="svg22598"
   inkscape:version="0.92.2 (5c3e80d, 2017-08-06)"
   sodipodi:docname="Lake Geneva.svg">
  <defs
     id="defs22592" />
  <sodipodi:namedview
     id="base"
     pagecolor="#ffffff"
     bordercolor="#666666"
     borderopacity="1.0"
     inkscape:pageopacity="0.0"
     inkscape:pageshadow="2"
     inkscape:zoom="0.35"
     inkscape:cx="172.71577"
     inkscape:cy="81.531276"
     inkscape:document-units="mm"
     inkscape:current-layer="layer1"
     showgrid="false"
     fit-margin-top="0"
     fit-margin-left="0"
     fit-margin-right="0"
     fit-margin-bottom="0" />
  <metadata
     id="metadata22595">
    <rdf:RDF>
      <cc:Work
         rdf:about="">
        <dc:format>image/svg+xml</dc:format>
        <dc:type
           rdf:resource="http://purl.org/dc/dcmitype/StillImage" />
        <dc:title></dc:title>
      </cc:Work>
    </rdf:RDF>
  </metadata>
  <g
     inkscape:label="Layer 1"
     inkscape:groupmode="layer"
     id="layer1"
     transform="translate(68.754262,1.25039)">
    <path
       inkscape:connector-curvature="0"
       id="path2296"
       d="m -68.754262,149.74283 0.184655,1.78319 1.933388,6.00548 0.967384,2.87457 v 0.0441 l 0.0055,0.73314 1.271926,2.92968 0.919152,1.78872 0.504362,0.88057 0.02755,0.0496 0.108864,0.21774 v 0.21773 l -0.260449,0.23837 -0.500228,0.25496 -0.125402,0.23978 -0.221865,0.22874 -0.05099,0.23015 0.126781,0.22049 0.137802,-0.0744 0.108867,0.0317 0.205327,-0.17639 0.250804,-0.27696 0.474045,-0.33902 0.217728,-0.0247 0.07855,0.0289 0.166744,0.0606 0.49058,0.45477 0.08957,0.0854 0.296276,0.48782 0.300412,0.3762 0.881944,0.60632 0.961874,0.41067 1.134123,0.0744 2.118046,-0.32106 0.617361,0.0771 0.771701,-0.26183 1.028016,-0.0496 1.307758,-0.062 1.457963,0.0194 1.27882,0.20119 1.087271,-0.4561 3.048222,-2.39367 0.771702,-0.4506 1.219563,-0.19019 1.845193,-0.12816 1.613683,-0.113 1.557184,-0.39962 0.935685,0.0786 1.289844,0.46853 2.268252,0.11574 1.689473,0.0606 1.008727,-0.1695 1.401463,-0.503 1.234721,-0.89019 0.781351,-1.20855 0.494713,-1.1727 0.195683,-1.3987 0.480936,-0.21911 0.509873,0.10471 0.566372,0.29629 0.825448,0.22737 1.2926,0.0289 0.859896,0.008 1.072113,0.29213 1.435915,0.10887 1.726681,0.25771 1.070737,-0.26734 1.118968,-0.33902 1.372524,-0.67384 1.347721,-0.40654 0.82958,0.0109 0.738611,0.24945 0.999066,0.37482 1.5392767,0.50987 0.733108,0.36795 3.175,0.59115 1.5778694,-0.12675 1.62334,-0.59257 0.610447,-0.11436 1.84107697,0.288 1.50343403,0.0675 1.637101,-0.018 2.589353,-0.25495 2.649961,-0.37895 0.866775,-0.43272 0.8116699,-0.38446 1.894806,-0.3018 1.936149,-0.26734 1.911316,-0.42442 2.542505,-0.82268 1.386308,-0.51678 0.913625,-0.29214 0.884695,-0.41342 1.336712,-0.7965 0.574638,-0.10474 1.039038,0.11162 2.51079,0.0303 3.195671,-0.0358 3.010996,-0.35553 1.15069,-0.26599 0.45336,-0.0647 0.87919,-0.12541 0.20948,-0.23703 0.36791,-0.28113 0.39825,-0.29489 2.77262,-0.26458 7.97885,-0.92879 0.92878,-0.42859 5.47218,-0.25079 0.97289,-0.17639 0.73727,-0.22186 0.57601,-0.23566 8.62789,-2.92005 1.01697,0.0882 0.62015,0.19156 0.88473,0.45748 1.593,0.60498 1.53374,0.26458 1.84245,-0.0579 0.9591,-0.0441 1.59304,-0.50161 0.66421,-0.66421 1.32704,-0.8847 1.26781,-1.29812 0.64904,-1.29811 0.31006,-0.73724 0.32385,-0.50161 4.35183,-2.44189 5.42671,-4.9554 3.77582,-5.90077 1.18099,-7.07898 2.59486,-4.95544 3.303161,-2.59482 8.73125,-4.01147 3.54016,1.88789 3.06751,1.17962 5.42809,1.17958 9.43818,1.17962 7.55167,-3.30317 h 5.42671 l 3.77581,-0.7083 5.42812,-0.94397 4.95403,0.23566 6.13642,-4.24713 7.78729,-5.42671 5.89936,-3.30454 5.42671,-2.831849 3.5402,-2.359203 2.83185,-1.65227 4.01147,-0.943961 2.3592,1.179583 5.27237,7.60677 3.6036,3.88747 2.40466,-0.65458 4.29398,0.0166 2.77399,2.3592 5.88698,2.86907 2.10288,4.25814 -0.63666,2.99998 5.27788,4.21958 2.49978,-1.82453 4.01699,2.02297 5.4515,1.50068 7.07898,0.7083 6.6077,-1.17961 5.66235,-4.9554 7.07898,-4.48416 6.37207,-4.01147 7.71287,-4.24572 5.37987,-2.83189 0.75515,0.28388 0.70832,-0.23565 1.2981,-0.35416 1.06108,-0.7083 1.13411,-0.77858 1.0377,-0.87369 0.3583,-0.0346 0.96737,-0.588399 0.39687,-0.39137 2.06566,-0.613237 0.93159,-0.141923 0.8957,-0.118533 1.06799,0.08131 0.12814,0.0095 1.15202,-0.237029 0.67246,-0.254918 1.41663,-0.141957 1.0377,-0.235622 0.6132,-0.235654 0.63802,-0.282506 0.54297,-1.369764 0.39137,-1.816243 0.38032,-1.982999 0.13504,-2.129084 0.15711,-3.370686 -0.0262,-1.980247 -0.0717,-2.694056 -0.0233,-0.846103 -0.37621,-3.77444 -0.80338,-4.719778 -0.61322,-2.643082 -0.47128,-0.850265 -0.70834,-0.399626 -0.63662,-0.402379 -0.70834,-0.377579 -0.98806,-0.425839 -3.5402,-2.360575 -1.88788,-3.538786 2.83183,-8.73125 2.36059,-6.372048 4.01148,-7.314634 2.15249,-2.006425 3.74414,-2.689929 3.30592,-7.810712 1.68532,-5.791906 1.59993,-4.894791 -0.42722,-4.080369 -5.40605,-7.642613 0.0896,-0.282469 0.42442,-0.321098 0.6091,0.0194 1.04042,-0.275626 0.98255,-1.174079 -0.0579,-0.238408 -0.86677,0.205352 -0.82129,0.378954 -1.04733,0.726228 -1.31604,0.249414 -0.31419,0.289384 -0.16672,0.250825 -0.76895,0.194275 -0.95914,-0.564974 -0.28525,-0.168134 -0.72485,-0.671089 -0.86953,-0.690421 -1.90722,-1.10102 -1.26228,-0.680755 -1.36977,-0.635282 -0.59119,-0.224614 -0.12536,0.03718 -0.37621,0.02611 -1.30633,-0.3124 -1.5489,-0.260455 -2.43626,-0.169482 -1.10937,0.0081 -1.10657,0.268711 -2.42533,0.931545 -1.63986,1.546154 -5.11114,3.147448 -2.52735,6.272848 -1.70186,3.261783 -2.63204,2.585226 -2.46394,2.11529 -3.8971,3.602179 -1.48965,1.521354 0.31144,2.401922 -0.95221,2.772621 -0.16127,4.395931 -3.38719,3.491934 -5.6927,3.639433 -8.0229,4.482746 -5.66375,4.247091 -7.07898,4.484159 -7.31597,2.123546 -4.24712,2.360578 -2.35921,4.011469 -3.77582,1.179619 -4.71977,1.650894 -3.5402,2.596197 -5.66237,0.472689 -6.37204,0.471276 -4.48275,1.416613 -3.30454,0.706933 -6.13502,0.943962 -2.59486,-0.23562 -5.42808,3.54016 -4.2471,-0.943962 -6.6077,-1.18096 -6.13502,-3.067508 -4.95543,-2.123583 -5.66374,-3.067507 -5.42809,-1.179584 -8.49422,-1.179619 -5.89939,0.235657 -7.78729,-2.359202 -7.31463,-0.472687 -5.66375,-2.360578 -4.48412,-0.942551 -3.53882,2.831854 -4.484121,3.53882 -5.19109,2.596198 -3.06751,4.011469 -4.9554,1.179619 -5.42812,2.831854 -7.07898,5.899396 -7.31462,5.42671 -2.36057,3.540159 -1.6509,1.887927 -3.77585,0.471275 -3.77581,-0.706932 -1.17959,-5.899359 -0.47268,-7.787288 -0.23563,-9.439593 0.47128,-7.550255 -2.83046,-6.372048 -3.06892,-3.067508 -6.13502,-1.65227 -4.71977,-0.471276 -5.426714,0.943928 -3.540196,2.12358 -0.706932,4.01147 -1.120352,8.108352 0.141959,5.519065 -2.228286,8.321958 -2.236576,3.584292 -1.229183,2.195195 -0.467182,1.544781 -0.402379,1.912725 0.164005,1.521352 0.02082,1.52273 -0.227402,2.663756 -0.402378,2.717483 -0.59944,3.96187 -0.17226,0.35415 -0.31556,0.2067 -0.522288,0.0219 L 12.474513,98.406238 10.877382,97.536712 9.3877071,96.558282 8.0716691,95.3291 7.6692911,94.612502 6.6688481,93.536249 5.6917951,92.2533 3.9306571,90.959313 1.4515831,89.600587 0.66887407,89.39386 -2.6797619,88.904664 l -1.543404,-0.130915 -4.4469404,0.771699 -3.1860407,0.751031 -2.42394,0.520911 -1.736328,0.223237 -0.720712,0.09232 -3.180514,0.746903 -2.320616,1.32983 -2.902151,1.456584 -1.251257,0.749652 -1.650888,0.902618 -0.325216,0.281094 -0.245295,0.213606 -0.460261,0.399627 -0.763437,0.399626 -0.72898,0.239784 -1.087271,0.401003 -2.119426,1.251272 -0.771699,0.771704 -0.67386,0.96738 -0.69591,0.57602 -0.304546,-0.0441 -0.609092,0.25079 -1.554427,1.30503 -1.0542,0.71794 -1.033529,1.22784 -1.696368,1.45659 -0.282496,0.30455 -0.358288,0.47816 -0.511253,0.72898 -0.891589,0.7276 -1.717037,0.79375 -1.934767,1.31604 -1.185111,1.43454 -0.337619,0.69592 -0.195682,0.64078 -0.09784,1.41387 0.135047,2.26413 -0.07166,0.54846 -3.566361,2.87044 -5.652713,2.59761 -2.344042,6.01374 -2.596226,6.66697 -3.460252,7.07344 z m 0,0"
       style="fill:#3c8aff;fill-opacity:1;fill-rule:evenodd;stroke:none;stroke-width:0.35277775" />
  </g>
</svg>
