<?xml version="1.0" encoding="UTF-8" standalone="no"?>
<!-- Created with Inkscape (http://www.inkscape.org/) -->

<svg
   xmlns:dc="http://purl.org/dc/elements/1.1/"
   xmlns:cc="http://creativecommons.org/ns#"
   xmlns:rdf="http://www.w3.org/1999/02/22-rdf-syntax-ns#"
   xmlns:svg="http://www.w3.org/2000/svg"
   xmlns="http://www.w3.org/2000/svg"
   xmlns:sodipodi="http://sodipodi.sourceforge.net/DTD/sodipodi-0.dtd"
   xmlns:inkscape="http://www.inkscape.org/namespaces/inkscape"
   width="447.3501"
   height="200.00612"
   viewBox="0 0 118.36138 52.918287"
   version="1.1"
   id="svg8"
   inkscape:version="0.92.2 (5c3e80d, 2017-08-06)"
   sodipodi:docname="Boating Guide Logo.svg"
   inkscape:export-filename="D:\Google Drive\Projects\James Kurtzweil\Lake Geneva\Boating Guide Logo.png"
   inkscape:export-xdpi="239.9926"
   inkscape:export-ydpi="239.9926">
  <defs
     id="defs2" />
  <sodipodi:namedview
     id="base"
     pagecolor="#ffffff"
     bordercolor="#666666"
     borderopacity="1.0"
     inkscape:pageopacity="0.0"
     inkscape:pageshadow="2"
     inkscape:zoom="0.35"
     inkscape:cx="-596.94115"
     inkscape:cy="-112.04051"
     inkscape:document-units="px"
     inkscape:current-layer="layer1"
     showgrid="false"
     units="px"
     inkscape:pagecheckerboard="false"
     fit-margin-top="0"
     fit-margin-left="0"
     fit-margin-right="0"
     fit-margin-bottom="0" />
  <metadata
     id="metadata5">
    <rdf:RDF>
      <cc:Work
         rdf:about="">
        <dc:format>image/svg+xml</dc:format>
        <dc:type
           rdf:resource="http://purl.org/dc/dcmitype/StillImage" />
        <dc:title />
      </cc:Work>
    </rdf:RDF>
  </metadata>
  <g
     inkscape:label="Layer 1"
     inkscape:groupmode="layer"
     id="layer1"
     transform="translate(-159.07461,-77.610222)">
    <path
       inkscape:connector-curvature="0"
       id="path2296"
       d="m 159.07461,124.15916 0.057,0.54971 0.59601,1.85133 0.29822,0.88615 v 0.0136 l 0.002,0.22601 0.3921,0.90314 0.28335,0.55141 0.15548,0.27146 0.008,0.0153 0.0336,0.0671 v 0.0671 l -0.0803,0.0735 -0.15421,0.0786 -0.0386,0.0739 -0.0684,0.0705 -0.0157,0.0709 0.0391,0.068 0.0425,-0.023 0.0336,0.01 0.0633,-0.0544 0.0773,-0.0854 0.14614,-0.10451 0.0671,-0.008 0.0242,0.009 0.0514,0.0187 0.15124,0.14019 0.0277,0.0263 0.0914,0.15038 0.0926,0.11597 0.27188,0.18691 0.29651,0.1266 0.34963,0.0229 0.65293,-0.099 0.19031,0.0238 0.2379,-0.0807 0.31691,-0.0153 0.40315,-0.0191 0.44945,0.006 0.39422,0.062 0.33519,-0.1406 0.93968,-0.73791 0.23789,-0.13891 0.37596,-0.0586 0.56883,-0.0395 0.49745,-0.0348 0.48004,-0.12318 0.28844,0.0242 0.39762,0.14443 0.69925,0.0357 0.52081,0.0187 0.31096,-0.0522 0.43204,-0.15506 0.38063,-0.27442 0.24088,-0.37257 0.15249,-0.36151 0.0603,-0.43118 0.14826,-0.0675 0.15718,0.0323 0.17459,0.0913 0.25447,0.0701 0.39847,0.009 0.26509,0.002 0.3305,0.0901 0.44265,0.0336 0.53229,0.0794 0.33008,-0.0824 0.34495,-0.10451 0.42311,-0.20772 0.41547,-0.12533 0.25574,0.003 0.2277,0.0769 0.30798,0.11554 0.47452,0.15719 0.22599,0.11342 0.97877,0.18224 0.48641,-0.0391 0.50044,-0.18268 0.18818,-0.0353 0.56755,0.0888 0.46348,0.0208 0.50467,-0.006 0.79822,-0.0786 0.81692,-0.11682 0.2672,-0.1334 0.25021,-0.11852 0.58412,-0.093 0.59686,-0.0824 0.58921,-0.13083 0.78379,-0.25361 0.42736,-0.15931 0.28164,-0.0901 0.27273,-0.12745 0.41208,-0.24554 0.17714,-0.0323 0.32031,0.0344 0.774,0.009 0.98514,-0.011 0.92822,-0.1096 0.35472,-0.082 0.13977,-0.02 0.27102,-0.0387 0.0645,-0.0731 0.11342,-0.0867 0.12277,-0.0909 0.85472,-0.0816 2.45966,-0.28632 0.28632,-0.13213 1.68693,-0.0773 0.29991,-0.0544 0.22729,-0.0684 0.17756,-0.0726 2.65975,-0.90017 0.31351,0.0272 0.19117,0.059 0.27274,0.14103 0.49108,0.1865 0.47281,0.0816 0.56798,-0.0178 0.29566,-0.0136 0.49109,-0.15464 0.20476,-0.20476 0.4091,-0.27272 0.39082,-0.40018 0.20009,-0.40017 0.0956,-0.22727 0.0999,-0.15464 1.34155,-0.75276 1.6729,-1.52762 1.16399,-1.81905 0.36407,-2.18226 0.79992,-1.52763 1.01828,-0.79991 2.69162,-1.23663 1.09133,0.58199 0.94562,0.36364 1.67334,0.36363 2.90953,0.36365 2.32799,-1.01828 h 1.6729 l 1.16398,-0.21835 1.67335,-0.291 1.52718,0.0726 1.89171,-1.30927 2.4006,-1.67291 1.81862,-1.0187 1.6729,-0.87298 1.09136,-0.72728 0.87297,-0.50935 1.23664,-0.291 0.72728,0.36363 1.62532,2.34496 1.1109,1.19841 0.74129,-0.20179 1.32371,0.005 0.85516,0.72727 1.8148,0.88446 0.64825,1.31267 -0.19626,0.92482 1.62703,1.30078 0.77061,-0.56245 1.23833,0.62362 1.68056,0.46262 2.18226,0.21835 2.03698,-0.36364 1.74554,-1.52762 2.18227,-1.38234 1.96431,-1.23663 2.37768,-1.30884 1.65846,-0.873 0.2328,0.0875 0.21836,-0.0726 0.40017,-0.10918 0.32709,-0.21835 0.34963,-0.24001 0.31988,-0.26934 0.11047,-0.0107 0.29821,-0.18138 0.12234,-0.12066 0.63679,-0.18904 0.28719,-0.0438 0.27612,-0.0365 0.32922,0.025 0.0395,0.003 0.35514,-0.0731 0.2073,-0.0786 0.43672,-0.0438 0.31989,-0.0726 0.18904,-0.0726 0.19668,-0.0871 0.16738,-0.42226 0.12065,-0.5599 0.11724,-0.6113 0.0416,-0.65634 0.0484,-1.03909 -0.008,-0.61046 -0.0222,-0.8305 -0.007,-0.26084 -0.11597,-1.16356 -0.24766,-1.45498 -0.18905,-0.814786 -0.14527,-0.262113 -0.21837,-0.123195 -0.19625,-0.124042 -0.21837,-0.116397 -0.30458,-0.131275 -1.09136,-0.727703 -0.58198,-1.090912 0.87298,-2.691609 0.72771,-1.964331 1.23663,-2.254906 0.66356,-0.618527 1.1542,-0.829233 1.01914,-2.407832 0.51953,-1.785489 0.49323,-1.508932 -0.1317,-1.257868 -1.66654,-2.356013 0.0277,-0.08708 0.13083,-0.09898 0.18778,0.006 0.32072,-0.08497 0.30289,-0.361936 -0.0179,-0.07349 -0.2672,0.06331 -0.25319,0.116822 -0.32286,0.223876 -0.40569,0.07689 -0.0969,0.0892 -0.0514,0.07732 -0.23705,0.0599 -0.29567,-0.174167 -0.088,-0.05183 -0.22345,-0.206878 -0.26805,-0.212838 -0.58795,-0.339415 -0.38913,-0.209859 -0.42225,-0.19584 -0.18225,-0.06924 -0.0386,0.01146 -0.11597,0.0081 -0.40271,-0.0963 -0.47747,-0.08025 -0.75103,-0.05224 -0.34199,0.0025 -0.34114,0.08283 -0.74765,0.287171 -0.50553,0.476637 -1.57562,0.970273 -0.77912,1.933751 -0.52464,1.005519 -0.81138,0.796956 -0.75957,0.652087 -1.20137,1.110456 -0.45921,0.468992 0.096,0.740448 -0.29354,0.854725 -0.0496,1.355147 -1.04419,1.076469 -1.7549,1.121939 -2.47324,1.381912 -1.74599,1.309264 -2.18226,1.382345 -2.25532,0.654632 -1.30927,0.727702 -0.72727,1.236629 -1.16399,0.363644 -1.45498,0.508926 -1.09135,0.800339 -1.74555,0.145717 -1.96433,0.145282 -1.38191,0.436704 -1.0187,0.217927 -1.89127,0.290995 -0.79992,-0.0726 -1.67333,1.09134 -1.30927,-0.291 -2.03698,-0.36406 -1.89126,-0.945629 -1.52763,-0.654641 -1.74597,-0.945631 -1.67333,-0.363634 -2.61855,-0.363644 -1.81862,0.07264 -2.40062,-0.727279 -2.2549,-0.145716 -1.74598,-0.727703 -1.38233,-0.290563 -1.09092,0.872984 -1.38234,1.090924 -1.60027,0.800337 -0.94563,1.236628 -1.52761,0.363644 -1.67335,0.872983 -2.18226,1.81863 -2.25489,1.67291 -0.7277,1.09133 -0.50894,0.582 -1.16399,0.14528 -1.16398,-0.21793 -0.36364,-1.81861 -0.14571,-2.40061 -0.0726,-2.909975 0.14529,-2.327541 -0.87256,-1.964331 -0.94607,-0.94563 -1.89125,-0.509351 -1.45499,-0.145281 -1.67291,0.290987 -1.09134,0.654643 -0.21793,1.236628 -0.34538,2.499587 0.0437,1.701379 -0.68692,2.565435 -0.68948,1.10494 -0.37892,0.67672 -0.14402,0.47622 -0.12404,0.58964 0.0505,0.46899 0.006,0.46942 -0.0701,0.82116 -0.12405,0.83773 -0.18479,1.22134 -0.0531,0.10917 -0.0973,0.0637 -0.16102,0.007 -0.45544,-0.19109 -0.49236,-0.26806 -0.45923,-0.30162 -0.4057,-0.37892 -0.12404,-0.22091 -0.30841,-0.33178 -0.30119,-0.3955 -0.54291,-0.3989 -0.76424,-0.41886 -0.24129,-0.0637 -1.03229,-0.1508 -0.4758,-0.0403 -1.37086,0.23789 -0.98218,0.23152 -0.74723,0.16059 -0.53526,0.0688 -0.22218,0.0284 -0.98047,0.23025 -0.71538,0.40995 -0.89465,0.44902 -0.38574,0.2311 -0.50892,0.27826 -0.10028,0.0867 -0.0756,0.0658 -0.14188,0.12319 -0.23536,0.12319 -0.22472,0.0739 -0.33518,0.12362 -0.65336,0.38573 -0.23789,0.2379 -0.20773,0.29822 -0.21453,0.17757 -0.0939,-0.0136 -0.18776,0.0773 -0.47919,0.40231 -0.32498,0.22132 -0.31861,0.37851 -0.52295,0.44903 -0.0871,0.0939 -0.11045,0.1474 -0.15761,0.22472 -0.27485,0.2243 -0.52931,0.2447 -0.59644,0.4057 -0.36534,0.44223 -0.10408,0.21453 -0.0603,0.19754 -0.0301,0.43585 0.0416,0.69797 -0.0221,0.16908 -1.09942,0.88488 -1.74256,0.80078 -0.72261,1.85387 -0.80035,2.05525 -1.0667,2.18055 z m 0,0"
       style="fill:#3c8aff;fill-opacity:1;fill-rule:evenodd;stroke:none;stroke-width:0.10875189" />
    <text
       xml:space="preserve"
       style="font-style:normal;font-variant:normal;font-weight:normal;font-stretch:normal;font-size:21.00649452px;line-height:1.25;font-family:Lobster;-inkscape-font-specification:Lobster;letter-spacing:0px;word-spacing:0px;fill:#000000;fill-opacity:1;stroke:none;stroke-width:0.52516228"
       id="text1934"
       y="100.38637"
       x="168.28035"><tspan
         sodipodi:role="line"
         id="tspan1932"
         x="168.28035"
         y="100.38637"
         style="font-style:normal;font-variant:normal;font-weight:bold;font-stretch:normal;font-family:Lobster;-inkscape-font-specification:'Lobster Bold';stroke-width:0.52516228">Geneva Lake</tspan></text>
    <text
       xml:space="preserve"
       style="font-style:normal;font-variant:normal;font-weight:normal;font-stretch:normal;font-size:13.2814455px;line-height:1.25;font-family:Lobster;-inkscape-font-specification:Lobster;letter-spacing:0px;word-spacing:0px;fill:#000000;fill-opacity:1;stroke:none;stroke-width:0.33203614"
       x="181.07553"
       y="115.56985"
       id="text1945"><tspan
         sodipodi:role="line"
         x="181.07553"
         y="115.56985"
         style="stroke-width:0.33203614"
         id="tspan1947">Boating Guide</tspan></text>
  </g>
</svg>
