<svg xmlns="http://www.w3.org/2000/svg" xmlns:xlink="http://www.w3.org/1999/xlink" width="100%" height="100%" version="1.1" viewBox="0 0 200 366" xml:space="preserve" style="fill-rule:evenodd;clip-rule:evenodd;stroke-linecap:round;stroke-miterlimit:1.5"><g id="Buoy"><path d="M257.187,444.978C257.187,451.29 209.077,456.414 149.818,456.414C90.559,456.414 42.448,451.29 42.448,444.978L42.448,75.119L42.449,75.156C42.64,81.451 90.677,86.555 149.818,86.555C209.077,86.555 257.187,81.431 257.187,75.119L257.187,444.978Z" transform="matrix(0.930366,0,0,0.930366,-39.4922,-59.2318)" style="fill:#ebebeb"/><g transform="matrix(0.930366,0,0,0.930366,-39.4922,-59.2318) matrix(1,0,0,1,-20.9657,-50.8259)"><ellipse cx="170.783" cy="125.945" rx="107.37" ry="11.436" style="fill:#dfdfdf"/></g><g><path d="M42.448,113.119L42.449,113.156C42.64,119.451 90.677,124.555 149.818,124.555C209.077,124.555 257.187,119.431 257.187,113.119L257.187,136.119C257.187,142.431 209.077,147.555 149.818,147.555C90.559,147.555 42.448,142.431 42.448,136.119L42.448,113.119Z" transform="matrix(0.930366,0,0,0.930366,-39.4922,-59.2318) matrix(1,0,0,1.45341,0,-59.408)" style="fill:#ff4254"/></g><g><path d="M42.448,113.119L42.449,113.156C42.64,119.451 90.677,124.555 149.818,124.555C209.077,124.555 257.187,119.431 257.187,113.119L257.187,136.119C257.187,142.431 209.077,147.555 149.818,147.555C90.559,147.555 42.448,142.431 42.448,136.119L42.448,113.119Z" transform="matrix(0.930366,0,0,0.930366,-39.4922,-59.2318) matrix(1,0,0,1.45341,0.182295,203.458)" style="fill:#ff4254"/></g></g><circle cx="100.063" cy="188.028" r="87.296" style="fill:#dfdfdf;fill-opacity:0;stroke:#ff4254;stroke-width:10.42px"/></svg>