<svg xmlns="http://www.w3.org/2000/svg" width="2869.333" height="2869.333" preserveAspectRatio="xMidYMid meet" version="1.0" viewBox="0 0 2152 2152"><metadata>Created by potrace 1.11, written by Peter Selinger 2001-2013</metadata><g fill="#000" stroke="none"><path d="M20220 15567 c-3 -3 -17 -7 -30 -10 -14 -2 -43 -11 -65 -21 -22 -10 -46 -19 -53 -20 -16 -3 -91 -59 -92 -69 0 -7 -195 -137 -205 -137 -3 0 -30 -17 -61 -37 -49 -33 -78 -72 -88 -118 -1 -5 -7 -20 -14 -31 -6 -12 -8 -24 -5 -28 3 -3 0 -6 -7 -6 -7 0 -10 -3 -7 -6 3 -4 1 -16 -5 -28 -7 -11 -13 -23 -14 -26 -1 -7 -13 -37 -30 -80 -8 -19 -38 -82 -67 -140 -49 -99 -59 -111 -167 -213 -63 -59 -126 -116 -139 -127 -28 -23 -181 -164 -252 -231 -26 -26 -45 -49 -42 -53 4 -3 1 -6 -6 -6 -20 0 -38 -24 -34 -45 16 -80 13 -124 -14 -205 -24 -72 -28 -102 -28 -192 0 -60 -4 -108 -8 -108 -5 0 -6 -4 -3 -9 3 -4 -7 -20 -22 -34 -15 -14 -63 -61 -106 -106 -44 -45 -85 -81 -93 -81 -7 0 -13 -3 -13 -8 0 -4 -17 -16 -37 -27 -21 -11 -43 -24 -50 -30 -7 -5 -19 -16 -28 -23 -8 -7 -15 -10 -15 -7 0 3 -37 -20 -82 -50 -45 -30 -87 -55 -95 -55 -7 0 -13 -4 -13 -9 0 -5 -12 -14 -27 -20 -16 -6 -55 -27 -88 -46 -75 -42 -135 -76 -204 -113 -46 -25 -222 -147 -255 -177 -6 -5 -31 -25 -56 -43 -25 -18 -66 -48 -92 -68 -27 -19 -48 -31 -48 -27 0 4 -4 3 -8 -3 -4 -5 -80 -56 -170 -113 -148 -93 -175 -107 -280 -138 -140 -41 -172 -50 -242 -68 -8 -2 -15 -4 -15 -5 0 -1 -7 -3 -17 -5 -9 -2 -44 -19 -78 -39 -33 -20 -64 -36 -66 -36 -3 0 -18 -9 -34 -20 -15 -11 -30 -17 -34 -13 -3 3 -6 2 -6 -4 0 -5 -11 -15 -25 -21 -14 -6 -25 -18 -25 -27 0 -8 -4 -15 -10 -15 -5 0 -10 -7 -10 -15 0 -8 -5 -15 -11 -15 -5 0 -8 -4 -5 -9 3 -5 -1 -14 -9 -21 -8 -7 -15 -18 -15 -25 0 -8 -3 -15 -7 -17 -5 -2 -18 -21 -30 -43 -18 -34 -30 -43 -80 -58 -32 -10 -65 -21 -73 -24 -8 -4 -17 -7 -20 -7 -3 -1 -11 -5 -17 -9 -7 -5 -17 -5 -23 -2 -5 3 -10 2 -10 -4 0 -6 -7 -8 -15 -5 -8 4 -15 2 -15 -3 0 -5 -19 -14 -42 -20 -139 -35 -267 -102 -373 -194 -22 -19 -57 -25 -178 -34 -43 -3 -92 -7 -110 -10 -18 -2 -75 -7 -127 -10 -52 -3 -117 -8 -145 -10 -27 -2 -79 -7 -114 -10 -35 -3 -70 -10 -77 -16 -8 -6 -14 -9 -14 -5 0 3 -12 1 -27 -5 -16 -6 -35 -12 -43 -14 -8 -2 -28 -9 -45 -16 -16 -7 -34 -11 -38 -10 -4 0 -16 -3 -27 -9 -10 -5 -34 -12 -53 -14 -19 -3 -62 -12 -97 -21 -34 -9 -67 -14 -73 -12 -7 2 -21 1 -32 -3 -11 -4 -43 -11 -70 -14 -47 -7 -68 -10 -140 -23 -34 -6 -121 -7 -180 -1 -37 3 -54 -6 -174 -82 -73 -47 -139 -91 -147 -99 -12 -11 -25 -11 -72 -2 -31 7 -66 14 -77 16 -11 2 -20 4 -20 5 0 2 -14 5 -60 13 -16 3 -43 9 -60 12 -34 7 -45 9 -165 30 -47 8 -98 17 -115 20 -16 3 -39 9 -50 12 -11 4 -22 7 -25 8 -14 2 -246 120 -251 128 -3 5 -10 9 -15 9 -14 1 -43 13 -111 46 -35 17 -63 28 -63 26 0 -3 -12 1 -27 10 -16 8 -77 38 -138 66 -60 29 -118 59 -127 68 -10 8 -18 12 -18 8 0 -4 -12 1 -27 12 -16 10 -44 26 -63 36 -19 10 -47 24 -63 32 -15 9 -37 17 -50 20 -12 3 -44 9 -72 15 -27 6 -57 12 -65 13 -8 1 -24 5 -35 9 -24 8 -68 16 -115 23 -40 5 -75 12 -75 14 0 0 -22 3 -50 5 -27 3 -63 7 -80 9 -41 6 -171 25 -220 32 -22 4 -44 6 -50 6 -5 0 -81 -3 -168 -6 -145 -6 -165 -5 -230 15 -40 12 -81 25 -92 30 -37 15 -125 38 -125 32 0 -3 -6 -1 -12 4 -7 6 -26 14 -43 18 -45 12 -45 12 -47 15 -7 5 -49 11 -103 14 -98 7 -267 18 -310 21 -34 3 -240 79 -255 95 -3 3 -14 7 -25 8 -11 2 -24 8 -30 12 -10 8 -69 25 -115 34 -14 2 -56 11 -93 20 -38 9 -74 16 -80 16 -11 0 -56 -34 -135 -101 -12 -10 -26 -19 -31 -19 -5 0 -11 -4 -13 -9 -1 -4 -43 -40 -93 -79 -125 -99 -146 -115 -161 -130 -7 -7 -44 -27 -81 -44 -37 -17 -71 -36 -74 -41 -3 -5 -9 -8 -13 -8 -12 3 -151 -71 -158 -82 -3 -7 -16 -23 -27 -36 -12 -13 -21 -27 -21 -30 0 -3 -14 -20 -30 -38 -17 -18 -30 -37 -30 -42 0 -6 -4 -11 -8 -11 -5 0 -15 -11 -22 -25 -15 -28 -30 -35 -109 -50 -19 -3 -39 -9 -45 -12 -6 -4 -17 -8 -26 -8 -51 -5 -108 -20 -137 -36 -18 -10 -33 -15 -33 -11 0 4 -4 2 -8 -4 -4 -7 -47 -31 -95 -55 -147 -73 -157 -80 -231 -144 -62 -55 -140 -115 -149 -115 -5 0 -8 -3 -4 -6 3 -3 -29 -33 -71 -67 -42 -34 -82 -66 -88 -71 -6 -6 -39 -31 -74 -56 -35 -25 -71 -53 -82 -62 -10 -10 -22 -18 -27 -18 -5 0 -11 -3 -13 -8 -1 -4 -46 -38 -98 -76 -118 -86 -123 -91 -195 -201 -33 -49 -69 -101 -82 -115 -12 -14 -33 -37 -45 -52 -18 -20 -36 -28 -77 -33 -30 -4 -63 -9 -75 -11 -54 -10 -157 -2 -236 20 -8 3 -25 5 -38 5 -13 1 -20 5 -17 11 3 6 2 10 -3 10 -5 0 -9 12 -10 28 -1 15 -4 38 -7 52 -4 14 -8 39 -11 55 -3 17 -12 64 -20 105 -20 97 -26 261 -10 292 13 26 13 42 2 112 -18 115 -18 124 14 146 17 12 30 28 30 36 0 8 4 14 9 14 13 0 7 54 -12 110 -16 47 -16 88 1 130 5 14 7 34 5 45 -2 11 -3 34 -3 50 5 102 0 171 -15 207 -3 9 -7 70 -9 135 -2 104 -5 124 -28 174 -21 43 -26 64 -21 95 14 81 8 142 -14 173 -12 16 -24 42 -27 57 -2 16 -5 29 -6 29 -2 0 -4 14 -5 30 -2 17 -4 30 -5 30 -1 0 -3 9 -5 20 -5 24 -63 74 -87 75 -10 0 -18 5 -18 10 0 6 -4 10 -10 10 -5 0 -33 11 -62 24 -58 25 -88 38 -103 42 -5 1 -36 10 -68 18 -32 9 -67 20 -76 26 -16 8 -78 20 -186 37 -16 2 -52 6 -80 8 -27 2 -50 4 -50 5 0 1 -39 3 -87 5 -48 2 -92 6 -98 10 -5 3 -10 2 -10 -2 0 -5 -15 -9 -32 -9 -64 -1 -203 -18 -203 -24 0 -1 -11 -3 -25 -6 -38 -6 -202 -90 -231 -118 -45 -42 -71 -94 -78 -158 -7 -54 -5 -64 17 -96 30 -44 50 -100 46 -126 -1 -11 -5 -51 -9 -90 -3 -39 -8 -85 -11 -101 -4 -17 -7 -48 -9 -70 -1 -22 -6 -65 -11 -95 -4 -30 -7 -59 -6 -64 7 -24 8 -244 1 -266 -5 -14 -10 -38 -13 -55 -3 -16 -9 -45 -15 -62 -5 -18 -7 -33 -4 -33 3 0 1 -6 -5 -12 -11 -14 -19 -42 -58 -186 -13 -51 -33 -108 -44 -127 -41 -72 -64 -120 -62 -127 1 -5 -2 -8 -8 -8 -5 0 -18 -17 -28 -37 -11 -21 -33 -65 -49 -98 -26 -51 -56 -151 -58 -192 0 -6 -3 -15 -7 -19 -4 -3 -3 -14 1 -23 11 -20 2 -346 -9 -346 -2 0 -6 -26 -14 -90 -7 -60 -14 -103 -19 -130 -3 -11 -8 -42 -12 -70 -12 -86 -31 -92 -134 -43 -156 74 -233 141 -362 313 -19 24 -42 47 -51 50 -10 4 -18 11 -18 16 0 5 -5 9 -10 9 -6 0 -19 8 -30 18 -16 14 -164 95 -180 98 -3 0 -27 4 -55 8 -77 12 -90 14 -90 16 0 2 -107 11 -140 12 -16 0 -54 -5 -84 -11 -29 -6 -57 -8 -62 -5 -5 3 -9 2 -9 -3 0 -4 -13 -9 -28 -10 -15 -1 -39 -4 -52 -7 -14 -3 -38 -8 -55 -11 -16 -3 -57 -13 -90 -22 -33 -8 -71 -17 -85 -20 -14 -2 -45 -9 -70 -15 -25 -6 -67 -12 -95 -14 -27 -2 -76 -10 -108 -17 -57 -14 -65 -16 -69 -18 -8 -2 -37 -9 -61 -14 -25 -5 -56 -21 -122 -62 -11 -7 -63 -33 -115 -59 -52 -25 -97 -49 -100 -52 -3 -4 -30 -20 -60 -36 -30 -16 -78 -46 -107 -68 -28 -22 -80 -50 -116 -63 -35 -12 -83 -35 -105 -49 -23 -14 -46 -26 -52 -26 -5 0 -10 -4 -10 -10 0 -5 -7 -10 -15 -10 -8 0 -15 -4 -15 -8 0 -24 -99 -125 -115 -118 -7 2 -34 -13 -61 -35 -27 -21 -60 -46 -74 -56 -14 -10 -65 -57 -114 -105 -49 -49 -92 -88 -97 -88 -5 0 -9 -4 -9 -10 0 -10 -15 -28 -63 -78 -12 -12 -42 -32 -67 -44 -76 -37 -153 -89 -193 -131 -20 -22 -37 -44 -37 -48 0 -4 -8 -15 -18 -25 -14 -15 -17 -38 -18 -153 l-1 -134 -30 -26 c-16 -14 -45 -38 -64 -53 -19 -14 -47 -38 -64 -53 -16 -15 -55 -38 -85 -52 -139 -64 -218 -101 -247 -113 -18 -8 -34 -24 -37 -35 -3 -12 -13 -39 -23 -61 -9 -21 -17 -41 -18 -44 -1 -3 -5 -17 -9 -32 -5 -16 -11 -28 -15 -28 -4 0 -7 -8 -8 -17 -1 -10 -8 -34 -16 -53 -9 -19 -16 -38 -16 -42 -1 -4 -17 -44 -36 -89 -19 -44 -35 -87 -35 -95 0 -8 -4 -14 -8 -14 -5 0 -9 -6 -9 -13 0 -26 -76 -203 -173 -403 -90 -185 -109 -234 -116 -289 -1 -11 -16 -76 -34 -144 -33 -133 -33 -207 0 -286 12 -27 40 -117 45 -143 2 -11 8 -30 14 -41 6 -11 11 -29 11 -40 0 -12 5 -21 12 -21 6 0 9 -3 6 -6 -4 -3 7 -45 24 -92 16 -48 31 -101 33 -118 1 -17 10 -45 19 -62 9 -18 14 -32 11 -32 -2 0 4 -15 15 -32 11 -18 20 -40 20 -50 0 -9 3 -18 8 -20 12 -5 93 -168 83 -168 -5 0 -24 -12 -41 -26 -44 -38 -24 -54 25 -21 35 24 39 25 59 10 12 -9 30 -30 41 -47 11 -17 45 -44 75 -59 48 -25 62 -28 115 -23 112 10 186 19 257 32 10 1 18 -2 18 -8 0 -7 4 -7 13 0 12 10 136 8 164 -2 24 -10 81 21 171 91 48 38 98 74 111 81 30 16 94 24 193 26 43 0 78 5 78 10 0 5 3 7 6 4 3 -4 20 -2 37 4 47 14 77 16 83 6 3 -4 9 -6 14 -3 5 3 24 0 42 -8 33 -13 65 -17 193 -21 127 -5 242 41 287 114 21 33 60 112 59 118 -5 19 2 54 14 66 14 14 21 13 68 -5 32 -13 76 -21 117 -21 36 -1 78 -5 94 -9 25 -7 101 -17 191 -23 37 -3 144 28 190 56 19 11 35 17 35 13 0 -4 6 -3 13 3 24 20 101 21 140 2 21 -10 37 -17 37 -14 0 2 20 -5 45 -16 25 -11 46 -19 48 -19 1 0 15 -5 32 -11 46 -18 176 -40 226 -39 24 0 72 10 106 20 71 23 84 25 138 14 130 -24 531 9 556 47 3 5 12 11 20 12 8 2 21 6 29 9 22 9 91 20 123 19 15 0 27 3 27 7 0 3 15 7 33 7 17 1 48 5 67 9 50 9 233 66 246 76 6 5 21 11 35 13 13 3 25 5 27 7 1 1 5 2 10 4 20 5 69 26 82 35 62 41 66 41 323 45 257 3 273 4 376 28 32 8 65 13 74 11 10 -1 17 2 17 7 0 5 11 14 25 19 14 5 25 13 25 18 0 5 23 9 50 8 28 -1 50 1 50 4 0 3 15 6 33 7 58 1 117 8 117 13 0 3 17 5 38 6 20 0 62 4 92 7 30 4 75 9 100 12 96 10 135 17 148 28 7 5 50 12 95 13 242 10 302 17 349 41 15 7 29 13 30 13 2 -1 10 1 18 4 236 81 381 129 402 133 16 3 28 9 28 12 0 15 89 3 132 -16 124 -58 150 -64 267 -64 110 0 178 19 220 62 16 16 34 29 39 29 14 0 134 121 128 128 -4 3 2 14 11 25 10 10 17 21 15 23 -5 7 30 74 38 74 5 0 52 25 104 55 53 31 103 58 111 61 8 3 32 22 53 43 21 20 76 70 121 111 130 117 163 152 212 231 26 41 64 101 85 134 49 76 59 93 78 130 8 17 49 93 91 170 86 161 93 176 99 213 2 15 8 47 11 72 4 25 21 74 38 110 16 36 30 71 30 78 0 6 4 12 8 12 4 0 10 12 14 27 10 41 116 140 136 127 5 -3 9 -1 9 4 0 5 10 13 23 17 30 10 26 8 82 34 28 13 79 37 115 53 36 17 90 41 120 55 30 13 64 29 76 34 17 9 41 0 135 -49 63 -32 144 -70 182 -83 37 -13 67 -28 67 -32 0 -4 4 -6 8 -3 5 3 76 -10 158 -28 82 -18 176 -36 209 -40 75 -9 112 -13 200 -25 39 -5 77 -10 85 -10 41 -1 98 -9 107 -14 34 -21 99 -1 333 105 25 12 46 20 48 19 1 -1 25 10 54 25 48 24 61 26 227 29 97 2 187 6 201 9 14 3 39 7 55 10 17 3 41 8 55 10 64 14 78 17 114 21 21 3 42 7 45 9 5 4 87 16 133 21 10 0 20 4 23 7 3 3 40 3 83 1 42 -2 111 -5 152 -6 l75 -3 103 73 c56 40 104 73 107 73 5 0 37 25 61 48 7 7 16 12 19 12 6 -1 43 25 83 57 15 13 33 23 40 23 6 0 12 5 12 10 0 6 6 10 14 10 8 0 17 7 20 16 3 8 10 12 16 9 5 -3 10 -2 10 2 0 5 18 19 40 33 22 14 40 28 40 32 0 5 6 8 14 8 8 0 16 3 18 8 4 9 134 98 191 131 23 13 44 27 47 30 3 4 28 17 55 31 28 14 52 27 55 30 6 6 76 44 160 87 30 15 57 30 60 33 13 13 70 40 70 33 0 -4 5 -1 10 7 5 8 13 15 17 15 8 1 54 24 123 62 19 10 62 37 94 59 97 64 109 72 150 96 21 13 46 28 55 33 22 14 85 49 91 50 16 4 86 19 90 20 3 0 11 4 18 8 6 5 12 6 12 4 0 -3 21 1 48 8 45 11 50 11 114 -22 51 -25 75 -44 95 -76 15 -23 30 -44 33 -47 3 -3 30 -41 60 -85 29 -44 57 -81 62 -83 4 -2 8 -9 8 -16 0 -7 8 -21 18 -32 9 -10 30 -39 47 -64 27 -41 50 -67 155 -180 18 -19 43 -48 57 -64 l25 -29 71 18 c106 28 350 23 332 -6 -4 -5 -1 -9 5 -9 11 0 31 -16 95 -75 19 -18 111 -66 285 -149 63 -30 90 -48 90 -61 0 -4 23 -51 50 -106 45 -89 63 -159 43 -159 -5 0 -8 -10 -9 -22 0 -13 -3 -41 -7 -63 -7 -39 -6 -41 46 -78 28 -20 66 -49 83 -65 17 -15 46 -38 64 -52 19 -14 46 -35 61 -47 29 -25 49 -30 49 -12 0 5 4 8 9 5 5 -4 11 -3 13 2 1 4 26 24 53 43 l50 36 57 -27 c32 -15 64 -33 72 -40 8 -6 21 -13 28 -14 7 -1 27 -10 45 -19 18 -9 40 -19 50 -20 10 -2 25 -7 33 -10 8 -4 26 -9 40 -11 40 -8 170 -45 179 -51 5 -2 35 -7 67 -10 131 -12 201 -17 241 -19 24 0 43 -4 43 -7 0 -3 29 -5 65 -5 36 1 65 3 65 6 0 3 12 7 28 8 15 1 38 5 52 8 14 3 39 7 55 10 17 2 39 5 50 8 11 2 43 7 70 11 51 7 54 9 166 108 19 18 59 52 88 77 29 25 71 62 94 82 23 21 46 38 51 38 4 0 25 12 45 28 20 15 52 36 71 46 19 11 37 22 40 25 3 3 14 11 25 18 57 33 267 167 278 177 7 6 18 12 25 13 6 2 34 19 61 38 26 19 51 35 55 35 3 0 28 15 54 33 26 18 61 40 77 49 17 8 47 24 68 36 63 37 99 57 182 102 44 23 85 46 90 50 9 7 74 42 324 171 50 27 78 36 89 30 23 -13 139 20 176 50 56 46 141 107 145 103 2 -2 25 11 50 29 57 41 192 78 277 76 33 -1 85 5 115 14 30 8 78 18 107 21 93 12 153 46 149 86 0 3 5 16 12 28 7 13 15 40 17 60 3 21 7 45 10 54 12 40 19 92 29 218 6 72 6 443 1 505 -14 157 -18 193 -22 215 -3 14 -7 41 -10 61 -4 34 -36 201 -49 259 -3 14 -8 38 -10 53 -13 67 -31 85 -160 150 -22 11 -86 50 -143 86 -102 66 -102 66 -145 151 -23 47 -45 87 -49 88 -14 6 -9 47 13 108 11 32 22 64 23 69 2 6 6 17 9 25 3 8 29 89 58 180 29 91 59 181 68 200 8 19 14 39 13 44 -2 4 2 14 8 21 6 7 12 21 14 31 3 11 10 33 17 49 7 17 13 32 14 35 10 41 60 147 126 267 46 81 93 169 106 194 35 69 117 149 248 241 123 87 115 76 177 225 6 15 11 31 10 36 -1 4 2 7 7 7 7 0 21 44 20 65 0 3 7 13 16 21 8 9 15 22 15 30 0 8 4 22 10 32 28 51 74 184 95 277 1 6 5 17 8 25 3 8 25 78 48 155 23 77 46 146 52 153 5 6 7 12 4 12 -4 0 0 18 8 41 13 37 13 122 0 189 -2 8 -4 29 -4 47 -1 17 -8 38 -16 47 -8 8 -15 19 -15 25 0 6 -3 11 -8 11 -4 0 -12 8 -17 19 -6 10 -30 47 -55 81 -25 35 -52 73 -60 86 -8 13 -43 62 -78 110 -50 69 -60 90 -50 101 6 8 17 12 24 9 7 -3 16 -1 18 3 3 5 18 9 32 9 18 0 38 12 60 35 40 42 41 47 13 47 -22 0 -119 -48 -130 -64 -4 -5 -17 -10 -30 -11 -13 -1 -29 -3 -35 -4 -6 0 -21 -10 -34 -21 -13 -11 -32 -20 -42 -20 -20 0 -86 42 -125 79 -63 59 -286 175 -359 185 -27 3 -71 11 -99 16 -60 11 -268 24 -275 17z" transform="translate(0.000000,2152.000000) scale(0.100000,-0.100000)"/></g></svg>