<?xml version="1.0" standalone="no"?>
<!DOCTYPE svg PUBLIC "-//W3C//DTD SVG 20010904//EN"
 "http://www.w3.org/TR/2001/REC-SVG-20010904/DTD/svg10.dtd">
<svg version="1.0" xmlns="http://www.w3.org/2000/svg"
 width="1678.000000pt" height="1678.000000pt" viewBox="0 0 1678.000000 1678.000000"
 preserveAspectRatio="xMidYMid meet">
<metadata>
Created by potrace 1.11, written by Peter Selinger 2001-2013
</metadata>
<g transform="translate(0.000000,1678.000000) scale(0.100000,-0.100000)"
fill="#000000" stroke="none">
<path d="M15695 12115 c-41 -15 -84 -39 -105 -59 -32 -31 -121 -93 -177 -123
-79 -42 -82 -45 -124 -152 -57 -146 -136 -305 -168 -338 -15 -15 -67 -64 -116
-108 -123 -111 -210 -192 -268 -248 l-49 -47 5 -57 c4 -43 0 -72 -14 -113 -13
-36 -22 -90 -25 -155 l-4 -100 -73 -73 c-80 -81 -231 -185 -436 -300 -25 -14
-73 -41 -106 -59 -33 -19 -71 -39 -85 -46 -14 -6 -86 -57 -160 -112 -74 -56
-204 -145 -288 -198 -148 -94 -159 -99 -307 -142 -206 -59 -344 -129 -377
-192 -11 -21 -35 -60 -53 -88 l-32 -50 -184 -59 c-101 -33 -186 -62 -189 -66
-3 -3 -38 -29 -78 -58 -67 -48 -78 -53 -140 -57 -122 -9 -186 -14 -252 -20
-36 -3 -95 -7 -132 -10 -37 -2 -114 -19 -170 -37 -57 -18 -105 -33 -108 -33
-6 -1 -83 -18 -90 -20 -3 0 -27 -4 -53 -9 -27 -4 -58 -9 -70 -12 -109 -21
-208 -28 -283 -21 -11 1 -69 -30 -130 -69 -60 -39 -114 -74 -120 -77 -6 -3
-46 2 -90 13 -68 16 -122 26 -231 46 -13 2 -35 6 -50 9 -16 3 -46 8 -68 11
-22 4 -105 39 -185 79 -80 40 -190 92 -245 115 -94 40 -156 71 -283 142 -63
36 -204 70 -397 98 -77 10 -158 23 -180 27 -22 4 -112 6 -200 5 -152 -2 -165
0 -260 29 -55 16 -111 34 -125 39 -75 27 -127 34 -327 45 -82 5 -107 11 -225
59 -139 56 -280 93 -320 83 -13 -4 -36 -19 -53 -35 -16 -15 -48 -41 -70 -57
-22 -17 -42 -32 -45 -35 -42 -44 -209 -158 -295 -200 -107 -53 -112 -57 -175
-140 -71 -92 -76 -95 -210 -125 -62 -14 -298 -121 -320 -145 -5 -5 -124 -106
-242 -202 -49 -41 -183 -144 -218 -168 -12 -8 -30 -22 -40 -30 -10 -8 -42 -33
-71 -54 -37 -26 -73 -67 -112 -126 -87 -131 -107 -146 -198 -159 -41 -6 -88
-8 -102 -6 -125 22 -147 27 -147 34 0 3 -9 49 -20 101 -12 52 -23 111 -26 130
-6 36 -7 46 -20 275 -10 172 -11 595 -2 729 l6 99 -60 136 c-54 123 -66 143
-129 207 -57 57 -79 73 -117 82 -26 7 -90 23 -142 37 -52 14 -131 28 -175 32
-117 9 -126 9 -235 -12 -10 -2 -38 -6 -62 -10 -24 -4 -78 -27 -123 -54 l-80
-47 -17 -94 c-9 -52 -19 -113 -22 -135 -2 -22 -13 -92 -22 -155 -11 -72 -16
-167 -15 -255 1 -138 0 -142 -48 -321 -41 -153 -56 -191 -94 -251 -52 -81
-118 -199 -118 -210 0 -5 -4 -24 -9 -44 -11 -40 -12 -47 -11 -174 1 -85 -1
-113 -14 -195 -3 -19 -8 -53 -11 -75 -24 -175 -30 -195 -54 -195 -48 0 -213
95 -258 148 -12 15 -49 59 -81 97 -43 51 -80 83 -137 117 -88 51 -125 63 -234
75 -87 9 -101 9 -155 0 -22 -4 -56 -9 -75 -13 -19 -3 -82 -16 -140 -29 -129
-29 -204 -43 -250 -49 -19 -2 -57 -9 -85 -16 -27 -6 -54 -13 -60 -14 -5 -1
-53 -25 -106 -54 -53 -29 -99 -52 -102 -52 -11 0 -181 -103 -200 -121 -10 -9
-45 -26 -76 -38 -32 -12 -75 -32 -95 -46 -20 -14 -39 -25 -41 -25 -8 0 -39
-33 -63 -68 -13 -17 -31 -32 -41 -32 -22 0 -120 -75 -184 -140 -26 -27 -55
-55 -65 -62 -9 -7 -33 -33 -53 -58 -24 -30 -59 -57 -104 -79 -38 -19 -90 -56
-117 -81 -62 -59 -77 -106 -71 -218 2 -50 0 -82 -6 -82 -5 0 -16 -6 -23 -14
-50 -49 -139 -112 -201 -140 -40 -18 -95 -43 -122 -55 l-51 -23 -89 -226 c-48
-125 -94 -243 -101 -262 -7 -19 -49 -111 -94 -205 -69 -142 -88 -193 -116
-310 -35 -142 -37 -188 -13 -260 88 -268 112 -345 116 -373 3 -18 32 -88 65
-155 35 -72 55 -123 49 -125 -16 -5 -41 -32 -41 -43 0 -14 16 -11 30 6 20 24
46 17 76 -21 48 -61 92 -77 188 -69 44 3 90 9 101 12 11 4 77 7 146 7 l126 1
69 56 c96 78 116 86 220 93 50 3 111 10 135 15 49 11 67 10 89 -4 8 -5 67 -11
131 -13 109 -4 119 -2 172 23 31 14 65 38 75 53 23 34 52 106 52 131 0 24 25
34 50 21 10 -6 58 -14 107 -20 109 -12 171 -20 202 -25 28 -5 125 20 158 41
35 22 107 34 138 23 11 -4 53 -20 93 -34 145 -53 226 -61 323 -29 37 12 59 14
87 7 41 -10 200 -10 277 1 28 4 66 9 85 12 19 2 55 13 80 24 25 11 99 28 165
39 133 22 279 67 370 114 l60 30 185 2 c102 2 201 5 220 9 19 4 62 12 95 18
33 6 71 19 85 29 14 10 53 20 90 23 36 4 90 9 120 11 30 3 66 7 80 10 14 2 54
7 90 11 76 7 92 10 134 23 17 6 87 13 155 15 123 6 127 7 348 82 249 85 254
85 363 39 55 -24 78 -28 155 -28 106 1 136 11 220 80 41 33 71 69 95 113 33
60 41 68 131 120 59 34 132 88 189 140 51 47 103 94 116 105 42 37 191 280
197 321 3 22 8 48 10 60 3 12 8 45 12 75 11 90 30 150 82 249 45 86 57 101
131 160 58 46 114 79 194 114 62 28 145 65 185 83 l72 34 66 -36 c155 -86 350
-139 620 -170 205 -24 219 -26 232 -30 10 -3 116 38 218 85 129 59 128 58 258
59 69 1 149 6 179 12 29 6 62 12 73 14 11 1 76 12 145 24 95 16 151 20 230 16
l105 -5 285 200 c275 193 355 244 505 325 39 21 75 41 80 45 6 5 53 29 105 55
52 27 127 68 165 93 204 132 229 145 322 167 l92 22 52 -26 c34 -17 61 -41 82
-71 16 -25 52 -75 79 -111 26 -37 48 -71 48 -77 0 -6 4 -12 8 -14 5 -1 19 -19
33 -39 13 -20 61 -77 107 -127 l82 -90 47 14 c26 8 89 14 145 14 l99 0 67 -54
c38 -30 120 -79 190 -112 l122 -59 46 -94 c39 -79 45 -100 39 -130 -19 -106
-28 -89 97 -189 96 -77 116 -89 130 -79 9 7 34 24 56 40 l39 27 90 -44 c49
-25 141 -59 204 -76 128 -36 117 -34 294 -50 72 -7 132 -12 135 -13 3 0 19 2
35 6 17 3 46 9 65 11 19 3 46 8 60 11 14 3 49 9 79 15 50 9 73 24 147 95 13
12 121 105 143 123 18 14 538 344 586 372 311 177 571 312 593 309 46 -7 103
16 180 69 99 70 137 92 181 108 42 16 115 27 159 25 18 -1 51 3 75 10 23 6 58
13 77 15 70 8 118 33 129 67 42 128 56 262 54 522 -1 186 -13 311 -49 495 -9
41 -17 86 -20 100 -10 54 -27 78 -77 108 -29 18 -57 32 -62 32 -5 0 -48 26
-96 58 -80 53 -89 62 -127 135 -34 65 -39 81 -31 105 5 15 41 122 79 237 84
254 138 397 172 456 14 24 27 49 28 54 1 6 7 17 14 25 8 8 33 52 56 98 47 89
93 136 229 234 l74 53 72 170 c39 94 81 206 94 250 13 44 45 150 72 235 51
162 51 156 34 298 -3 22 -42 86 -117 192 -62 88 -113 168 -113 177 0 12 12 20
40 25 52 11 113 68 73 68 -12 0 -90 -35 -179 -80 -35 -18 -37 -18 -70 2 -19
11 -47 33 -64 48 -44 41 -233 136 -285 143 -25 4 -56 9 -70 12 -14 3 -68 8
-120 10 -84 5 -103 2 -165 -20z"/>
</g>
</svg>
